Coordinates
version=1
nRows=22
nColumns=24
inDegrees=yes

Units are S.I. units (second, meters, Newtons, ...)
Angles are in degrees.

endheader
time	pelvis_tilt	pelvis_list	pelvis_rotation	pelvis_tx	pelvis_ty	pelvis_tz	hip_flexion_r	hip_adduction_r	hip_rotation_r	knee_angle_r	ankle_angle_r	subtalar_angle_r	mtp_angle_r	hip_flexion_l	hip_adduction_l	hip_rotation_l	knee_angle_l	ankle_angle_l	subtalar_angle_l	mtp_angle_l	lumbar_extension	lumbar_bending	lumbar_rotation
      1.99000000	     91.02108572	     32.83359439	    -92.61229628	      1.02285348	      0.28612855	      1.07778019	     21.25488963	     -5.59684133	     -5.06417724	    -16.92876691	    -13.90022231	      0.00000000	      0.00000000	      9.80645792	     -7.27745670	     -6.42268987	    -72.56239313	    -10.55953740	      0.00000000	      0.00000000	      0.00000000	      0.00000000	      0.00000000
      2.00000000	     91.04268715	     32.80459349	    -92.60480755	      1.02275790	      0.28616144	      1.07765939	     21.27183539	     -5.62780722	     -5.05421171	    -16.95189983	    -14.09397690	      0.00000000	      0.00000000	      9.78299601	     -7.25192703	     -6.40660357	    -72.56422449	    -10.55314654	      0.00000000	      0.00000000	      0.00000000	      0.00000000	      0.00000000
      2.01000000	     91.05564177	     32.80040594	    -92.60076472	      1.02272923	      0.28615769	      1.07756836	     21.26310673	     -5.63937872	     -5.06996196	    -16.91420305	    -14.08781002	      0.00000000	      0.00000000	      9.78214809	     -7.23671759	     -6.39084668	    -72.56790163	    -10.55122934	      0.00000000	      0.00000000	      0.00000000	      0.00000000	      0.00000000
      2.02000000	     91.06197437	     32.81251412	    -92.60182265	      1.02275772	      0.28615310	      1.07757213	     21.23725912	     -5.64211486	     -5.12950265	    -16.84472971	    -13.94574255	      0.00000000	      0.00000000	      9.79510724	     -7.23074295	     -6.38224823	    -72.57095363	    -10.55312222	      0.00000000	      0.00000000	      0.00000000	      0.00000000	      0.00000000
      2.03000000	     91.06486993	     32.82987356	    -92.60807666	      1.02280531	      0.28615862	      1.07763773	     21.20848385	     -5.64530247	     -5.22843793	    -16.77456780	    -13.77350777	      0.00000000	      0.00000000	      9.80972449	     -7.23029777	     -6.38497676	    -72.57060473	    -10.55687973	      0.00000000	      0.00000000	      0.00000000	      0.00000000	      0.00000000
      2.04000000	     91.06644916	     32.84419044	    -92.62057890	      1.02284507	      0.28616868	      1.07770878	     21.18887590	     -5.65253658	     -5.33907761	    -16.72850338	    -13.66709122	      0.00000000	      0.00000000	      9.81620493	     -7.23132030	     -6.39889840	    -72.56544641	    -10.56001283	      0.00000000	      0.00000000	      0.00000000	      0.00000000	      0.00000000
      2.05000000	     91.06742213	     32.84962736	    -92.63967147	      1.02286162	      0.28617197	      1.07773245	     21.18673675	     -5.66075846	     -5.41612377	    -16.71959029	    -13.66631102	      0.00000000	      0.00000000	      9.80895977	     -7.23155683	     -6.41970701	    -72.55725598	    -10.56046684	      0.00000000	      0.00000000	      0.00000000	      0.00000000	      0.00000000
      2.06000000	     91.06783124	     32.84108278	    -92.66133419	      1.02284994	      0.28615728	      1.07768469	     21.20522871	     -5.66313593	     -5.40683684	    -16.74949866	    -13.73296031	      0.00000000	      0.00000000	      9.78747343	     -7.23176989	     -6.44062294	    -72.55118645	    -10.55728999	      0.00000000	      0.00000000	      0.00000000	      0.00000000	      0.00000000
      2.07000000	     91.06739518	     32.81641631	    -92.67642921	      1.02282711	      0.28611984	      1.07761954	     21.23619236	     -5.65441853	     -5.26478138	    -16.81513175	    -13.76381210	      0.00000000	      0.00000000	      9.75846495	     -7.23556595	     -6.45494074	    -72.55346321	    -10.55066184	      0.00000000	      0.00000000	      0.00000000	      0.00000000	      0.00000000
      2.08000000	     91.06500360	     32.78365010	    -92.67539541	      1.02283167	      0.28605586	      1.07762284	     21.25281864	     -5.63566142	     -4.96637242	    -16.91666679	    -13.63496231	      0.00000000	      0.00000000	      9.73646422	     -7.24774639	     -6.45850266	    -72.56783329	    -10.54145932	      0.00000000	      0.00000000	      0.00000000	      0.00000000	      0.00000000
      2.09000000	     91.05897661	     32.76369697	    -92.65527385	      1.02289126	      0.28595163	      1.07765479	     21.21560023	     -5.61429919	     -4.52707301	    -17.05754135	    -13.26056423	      0.00000000	      0.00000000	      9.73769991	     -7.27140939	     -6.45131532	    -72.59341884	    -10.53088022	      0.00000000	      0.00000000	      0.00000000	      0.00000000	      0.00000000
      2.10000000	     91.04956140	     32.77526313	    -92.62251916	      1.02299676	      0.28579779	      1.07756041	     21.10215207	     -5.59809432	     -4.01003550	    -17.23091704	    -12.64142428	      0.00000000	      0.00000000	      9.76815199	     -7.30473703	     -6.43789745	    -72.62552553	    -10.52044750	      0.00000000	      0.00000000	      0.00000000	      0.00000000	      0.00000000
      2.11000000	     91.04135231	     32.81046302	    -92.58919475	      1.02312931	      0.28562206	      1.07735245	     20.94075159	     -5.58815765	     -3.51777431	    -17.40450442	    -11.88127145	      0.00000000	      0.00000000	      9.81551200	     -7.33976978	     -6.42594651	    -72.65806696	    -10.51213393	      0.00000000	      0.00000000	      0.00000000	      0.00000000	      0.00000000
      2.12000000	     91.04043036	     32.83886291	    -92.56798757	      1.02326564	      0.28547762	      1.07722500	     20.79993433	     -5.58006280	     -3.16259653	    -17.52932958	    -11.16116844	      0.00000000	      0.00000000	      9.85480365	     -7.36527469	     -6.42317220	    -72.68499840	    -10.50807840	      0.00000000	      0.00000000	      0.00000000	      0.00000000	      0.00000000
      2.13000000	     91.04813650	     32.84019655	    -92.56869023	      1.02335209	      0.28539813	      1.07723064	     20.73628285	     -5.57174916	     -3.02634775	    -17.57058986	    -10.68049946	      0.00000000	      0.00000000	      9.86516251	     -7.37245343	     -6.43355408	    -72.70026335	    -10.50984240	      0.00000000	      0.00000000	      0.00000000	      0.00000000	      0.00000000
      2.14000000	     91.05976440	     32.81802351	    -92.59314444	      1.02335498	      0.28539790	      1.07729840	     20.76194680	     -5.56702388	     -3.13118860	    -17.52643084	    -10.58735221	      0.00000000	      0.00000000	      9.84360666	     -7.35940503	     -6.45522556	    -72.69832478	    -10.51777176	      0.00000000	      0.00000000	      0.00000000	      0.00000000	      0.00000000
      2.15000000	     91.06843126	     32.78952929	    -92.63219474	      1.02329058	      0.28547893	      1.07739874	     20.85029205	     -5.57219103	     -3.43617891	    -17.42285025	    -10.92521705	      0.00000000	      0.00000000	      9.80443534	     -7.33139282	     -6.48122907	    -72.67668676	    -10.53097248	      0.00000000	      0.00000000	      0.00000000	      0.00000000	      0.00000000
      2.16000000	     91.06945795	     32.77363395	    -92.66959884	      1.02316771	      0.28561195	      1.07745902	     20.95789321	     -5.59078019	     -3.85878053	    -17.29672464	    -11.61608625	      0.00000000	      0.00000000	      9.76670366	     -7.29740398	     -6.50262829	    -72.63871118	    -10.54780398	      0.00000000	      0.00000000	      0.00000000	      0.00000000	      0.00000000
      2.17000000	     91.06391184	     32.77340134	    -92.68946481	      1.02301165	      0.28576285	      1.07748674	     21.05514244	     -5.61912415	     -4.30862027	    -17.17437261	    -12.48556956	      0.00000000	      0.00000000	      9.74199060	     -7.26569236	     -6.51242463	    -72.59356733	    -10.56637203	      0.00000000	      0.00000000	      0.00000000	      0.00000000	      0.00000000
      2.18000000	     91.05713775	     32.77570617	    -92.68467134	      1.02289005	      0.28591517	      1.07761008	     21.13391280	     -5.64837838	     -4.71527019	    -17.06483480	    -13.31982202	      0.00000000	      0.00000000	      9.73146914	     -7.24079388	     -6.50853650	    -72.55234561	    -10.58470121	      0.00000000	      0.00000000	      0.00000000	      0.00000000	      0.00000000
      2.19000000	     91.05271805	     32.77539923	    -92.66206785	      1.02282475	      0.28603708	      1.07776111	     21.18566649	     -5.67231012	     -5.03960177	    -16.97266482	    -13.93346700	      0.00000000	      0.00000000	      9.73043924	     -7.22301663	     -6.49449773	    -72.52292504	    -10.60078788	      0.00000000	      0.00000000	      0.00000000	      0.00000000	      0.00000000
      2.20000000	     91.05115739	     32.77638617	    -92.63682652	      1.02279197	      0.28609936	      1.07779367	     21.20089986	     -5.68957345	     -5.27197928	    -16.90268431	    -14.22479004	      0.00000000	      0.00000000	      9.73296489	     -7.20984833	     -6.47761101	    -72.50719441	    -10.61289096	      0.00000000	      0.00000000	      0.00000000	      0.00000000	      0.00000000
